#!OML:ASF F:\VICON\USERDATA\INSTALL\rory3\rory3.ASF
:FULLY-SPECIFIED
:DEGREES
127
root 5.28281 18.2917 0.271239 160.811 -106.519 -155.008
lowerback 34.1763 0.246086 1.12166
upperback 7.69259 0.455654 4.51889
thorax -8.94909 -0.138431 4.07099
lowerneck -12.0667 -2.36637 -3.7188
upperneck 6.32857 -2.41605 -1.994
head 4.30262 -1.41153 -0.189917
rclavicle 6.52014e-014 -7.31528e-014
rhumerus -25.857 -18.6808 -58.7324
rradius 117.169
rwrist 10.5369
rhand -7.51133 4.17019
rfingers 7.12502
rthumb 18.379 -24.9816
lclavicle 6.52014e-014 -7.31528e-014
lhumerus -48.9325 3.56482 80.3685
lradius 55.4873
lwrist 15.0702
lhand -8.51191 53.1355
lfingers 7.12502
lthumb 17.4162 82.3753
rfemur -28.9924 -8.46834 22.17
rtibia 55.9146
rfoot -6.17463 -1.80348
rtoes 1.83802
lfemur -30.6027 1.64888 -21.1414
ltibia 44.7297
lfoot -5.45442 -10.286
ltoes -40.1322
128
root 5.31076 18.278 0.432039 160.313 -106.447 -154.631
lowerback 34.3807 0.412823 0.791692
upperback 7.53471 0.580757 4.56037
thorax -9.21806 -0.0692257 4.25007
lowerneck -11.831 -2.40426 -3.83981
upperneck 6.06733 -2.47553 -1.89559
head 4.16444 -1.43331 -0.133407
rclavicle 4.77083e-014 2.22639e-014
rhumerus -26.0917 -16.155 -59.6559
rradius 118.505
rwrist 13.6732
rhand -8.5653 4.12148
rfingers 7.12502
rthumb 17.3648 -25.1228
lclavicle 4.77083e-014 2.22639e-014
lhumerus -49.4786 4.13576 80.2762
lradius 55.6835
lwrist 14.0229
lhand -7.81408 52.7554
lfingers 7.12502
lthumb 18.0877 81.9344
rfemur -28.0021 -7.54264 22.1233
rtibia 54.9484
rfoot -7.62541 -2.56597
rtoes 7.87577
lfemur -30.54 1.76263 -20.1827
ltibia 45.1317
lfoot -6.87607 -8.80016
ltoes -38.7653
129
root 5.34021 18.2489 0.581843 159.645 -106.438 -154.034
lowerback 34.607 0.671855 0.213603
upperback 7.314 0.760157 4.7629
thorax -9.58301 0.033304 4.71539
lowerneck -11.497 -2.51854 -4.63894
upperneck 5.84694 -2.56265 -1.52215
head 4.04038 -1.47277 0.134568
rclavicle -1.74931e-014 4.77083e-014
rhumerus -26.3804 -13.4478 -60.3997
rradius 119.512
rwrist 16.4412
rhand -9.80645 4.08845
rfingers 7.12502
rthumb 16.17 -25.2571
lclavicle -1.74931e-014 4.77083e-014
lhumerus -49.8192 4.01093 80.3203
lradius 55.7401
lwrist 13.7399
lhand -7.27311 52.6331
lfingers 7.12502
lthumb 18.6081 81.7631
rfemur -27.0596 -6.56764 21.9672
rtibia 54.0943
rfoot -10.3709 -5.59557
rtoes 3.06421
lfemur -30.5358 1.97065 -19.2688
ltibia 45.4349
lfoot -7.71978 -7.57772
ltoes -36.435
130
root 5.37938 18.2137 0.763166 159.741 -107.323 -154.032
lowerback 34.4853 0.262283 0.386498
upperback 7.08394 0.328919 4.64685
thorax -9.75193 -0.151947 4.66608
lowerneck -10.9302 -2.5234 -4.6291
upperneck 5.17225 -2.61446 -1.65854
head 3.68482 -1.49046 0.0966098
rclavicle 1.74931e-014 3.81667e-014
rhumerus -26.4464 -10.5159 -61.5258
rradius 120.322
rwrist 19.2261
rhand -10.8903 4.01941
rfingers 7.12502
rthumb 15.1261 -25.4078
lclavicle 1.74931e-014 3.81667e-014
lhumerus -50.1583 4.3765 80.0807
lradius 55.8104
lwrist 13.1881
lhand -6.55259 52.3384
lfingers 7.12502
lthumb 19.3011 81.4006
rfemur -26.3687 -6.72342 21.3791
rtibia 53.3962
rfoot -12.0184 -7.45055
rtoes 2.6393
lfemur -30.9255 1.09617 -18.549
ltibia 45.669
lfoot -8.37187 -6.26871
ltoes -36.011
131
root 5.40649 18.1772 0.925087 158.07 -107.403 -152.627
lowerback 34.7933 0.444986 -0.145419
upperback 7.05851 0.362935 4.49874
thorax -9.9037 -0.12379 4.7842
lowerneck -10.3689 -2.57923 -3.46161
upperneck 3.97958 -2.8582 -2.62492
head 3.12166 -1.60843 -0.420609
rclavicle -7.95139e-015 -1.90833e-014
rhumerus -26.4637 -7.94253 -63.0733
rradius 120.808
rwrist 22.5605
rhand -11.8655 4.16101
rfingers 7.12502
rthumb 14.1866 -25.3346
lclavicle -7.95139e-015 -1.90833e-014
lhumerus -50.3198 4.86379 79.6574
lradius 55.9098
lwrist 12.6405
lhand -5.64062 51.8858
lfingers 7.12502
lthumb 20.1778 80.8578
rfemur -25.2718 -5.86522 20.6117
rtibia 52.759
rfoot -13.2504 -8.4627
rtoes 5.54915
lfemur -30.591 0.893288 -17.8093
ltibia 45.8447
lfoot -8.98819 -4.97532
ltoes -35.4136
